<mxfile host="app.diagrams.net" agent="Mozilla/5.0 (Windows NT 10.0; Win64; x64; rv:144.0) Gecko/20100101 Firefox/144.0" version="28.2.8">
  <diagram name="Page-1" id="ZuqLZo0utqNgMPCnaPPI">
    <mxGraphModel grid="1" page="1" gridSize="10" guides="1" tooltips="1" connect="1" arrows="1" fold="1" pageScale="1" pageWidth="850" pageHeight="1100" math="0" shadow="0">
      <root>
        <mxCell id="0" />
        <mxCell id="1" parent="0" />
        <mxCell id="Qd_BEHRQg58mUEn6fGvU-3" value="4.1. Table Selector (Students, Payments)" style="ellipse;whiteSpace=wrap;html=1;aspect=fixed;" vertex="1" parent="1">
          <mxGeometry x="313" y="202.5" width="145" height="145" as="geometry" />
        </mxCell>
        <mxCell id="Qd_BEHRQg58mUEn6fGvU-4" value="" style="curved=1;endArrow=classic;html=1;rounded=0;entryX=0;entryY=0.5;entryDx=0;entryDy=0;" edge="1" parent="1" target="Qd_BEHRQg58mUEn6fGvU-3">
          <mxGeometry width="50" height="50" relative="1" as="geometry">
            <mxPoint x="170" y="280" as="sourcePoint" />
            <mxPoint x="220" y="230" as="targetPoint" />
            <Array as="points">
              <mxPoint x="220" y="280" />
              <mxPoint x="170" y="230" />
            </Array>
          </mxGeometry>
        </mxCell>
        <mxCell id="Qd_BEHRQg58mUEn6fGvU-5" value="Payment" style="shape=partialRectangle;whiteSpace=wrap;html=1;left=0;right=0;fillColor=none;" vertex="1" parent="1">
          <mxGeometry x="100" y="420" width="120" height="60" as="geometry" />
        </mxCell>
        <mxCell id="Qd_BEHRQg58mUEn6fGvU-6" value="Student" style="shape=partialRectangle;whiteSpace=wrap;html=1;left=0;right=0;fillColor=none;" vertex="1" parent="1">
          <mxGeometry x="458" y="420" width="120" height="60" as="geometry" />
        </mxCell>
        <mxCell id="Qd_BEHRQg58mUEn6fGvU-8" value="" style="endArrow=classic;html=1;rounded=0;entryX=0.5;entryY=0;entryDx=0;entryDy=0;exitX=0;exitY=1;exitDx=0;exitDy=0;" edge="1" parent="1" source="Qd_BEHRQg58mUEn6fGvU-3" target="Qd_BEHRQg58mUEn6fGvU-5">
          <mxGeometry width="50" height="50" relative="1" as="geometry">
            <mxPoint x="335" y="460" as="sourcePoint" />
            <mxPoint x="385" y="410" as="targetPoint" />
          </mxGeometry>
        </mxCell>
        <mxCell id="Qd_BEHRQg58mUEn6fGvU-9" value="" style="endArrow=classic;html=1;rounded=0;entryX=0.5;entryY=0;entryDx=0;entryDy=0;exitX=1;exitY=1;exitDx=0;exitDy=0;" edge="1" parent="1" source="Qd_BEHRQg58mUEn6fGvU-3" target="Qd_BEHRQg58mUEn6fGvU-6">
          <mxGeometry width="50" height="50" relative="1" as="geometry">
            <mxPoint x="454" y="403" as="sourcePoint" />
            <mxPoint x="280" y="497" as="targetPoint" />
          </mxGeometry>
        </mxCell>
        <mxCell id="Qd_BEHRQg58mUEn6fGvU-10" value="" style="endArrow=classic;html=1;rounded=0;entryX=0.051;entryY=0.736;entryDx=0;entryDy=0;exitX=0.25;exitY=0;exitDx=0;exitDy=0;entryPerimeter=0;" edge="1" parent="1" source="Qd_BEHRQg58mUEn6fGvU-5" target="Qd_BEHRQg58mUEn6fGvU-3">
          <mxGeometry width="50" height="50" relative="1" as="geometry">
            <mxPoint x="264" y="310" as="sourcePoint" />
            <mxPoint x="90" y="404" as="targetPoint" />
          </mxGeometry>
        </mxCell>
        <mxCell id="Qd_BEHRQg58mUEn6fGvU-11" value="" style="endArrow=classic;html=1;rounded=0;entryX=0.965;entryY=0.696;entryDx=0;entryDy=0;exitX=0.75;exitY=0;exitDx=0;exitDy=0;entryPerimeter=0;" edge="1" parent="1" source="Qd_BEHRQg58mUEn6fGvU-6" target="Qd_BEHRQg58mUEn6fGvU-3">
          <mxGeometry width="50" height="50" relative="1" as="geometry">
            <mxPoint x="388" y="471" as="sourcePoint" />
            <mxPoint x="578" y="360" as="targetPoint" />
          </mxGeometry>
        </mxCell>
        <mxCell id="Qd_BEHRQg58mUEn6fGvU-12" value="New Student Registration Request" style="text;html=1;whiteSpace=wrap;strokeColor=none;fillColor=none;align=center;verticalAlign=middle;rounded=0;" vertex="1" parent="1">
          <mxGeometry x="540" y="80" width="180" height="30" as="geometry" />
        </mxCell>
        <mxCell id="Qd_BEHRQg58mUEn6fGvU-13" value="4.2. Register new student" style="ellipse;whiteSpace=wrap;html=1;aspect=fixed;" vertex="1" parent="1">
          <mxGeometry x="680" y="202.5" width="145" height="145" as="geometry" />
        </mxCell>
        <mxCell id="Qd_BEHRQg58mUEn6fGvU-17" value="" style="curved=1;endArrow=classic;html=1;rounded=0;entryX=0.5;entryY=0;entryDx=0;entryDy=0;exitX=0.25;exitY=1;exitDx=0;exitDy=0;" edge="1" parent="1" source="Qd_BEHRQg58mUEn6fGvU-12" target="Qd_BEHRQg58mUEn6fGvU-13">
          <mxGeometry width="50" height="50" relative="1" as="geometry">
            <mxPoint x="558.5" y="170" as="sourcePoint" />
            <mxPoint x="701.5" y="165" as="targetPoint" />
            <Array as="points">
              <mxPoint x="608.5" y="170" />
              <mxPoint x="650" y="200" />
            </Array>
          </mxGeometry>
        </mxCell>
        <mxCell id="Qd_BEHRQg58mUEn6fGvU-20" value="" style="endArrow=classic;html=1;rounded=0;exitX=0.5;exitY=1;exitDx=0;exitDy=0;" edge="1" parent="1" source="Qd_BEHRQg58mUEn6fGvU-13">
          <mxGeometry width="50" height="50" relative="1" as="geometry">
            <mxPoint x="730" y="508" as="sourcePoint" />
            <mxPoint x="753" y="500" as="targetPoint" />
          </mxGeometry>
        </mxCell>
        <mxCell id="Qd_BEHRQg58mUEn6fGvU-21" value="Username &amp;amp; Password" style="text;html=1;whiteSpace=wrap;strokeColor=none;fillColor=none;align=center;verticalAlign=middle;rounded=0;" vertex="1" parent="1">
          <mxGeometry x="750" y="400" width="80" height="30" as="geometry" />
        </mxCell>
        <mxCell id="Qd_BEHRQg58mUEn6fGvU-22" value="Account" style="shape=partialRectangle;whiteSpace=wrap;html=1;left=0;right=0;fillColor=none;" vertex="1" parent="1">
          <mxGeometry x="692.5" y="500" width="120" height="60" as="geometry" />
        </mxCell>
        <mxCell id="Qd_BEHRQg58mUEn6fGvU-28" value="Updated Payment Data" style="text;html=1;whiteSpace=wrap;strokeColor=none;fillColor=none;align=center;verticalAlign=middle;rounded=0;" vertex="1" parent="1">
          <mxGeometry x="250" y="360" width="90" height="30" as="geometry" />
        </mxCell>
        <mxCell id="Qd_BEHRQg58mUEn6fGvU-29" value="Updated Student Data" style="text;html=1;whiteSpace=wrap;strokeColor=none;fillColor=none;align=center;verticalAlign=middle;rounded=0;" vertex="1" parent="1">
          <mxGeometry x="390" y="350" width="90" height="30" as="geometry" />
        </mxCell>
        <mxCell id="Qd_BEHRQg58mUEn6fGvU-30" value="&lt;div&gt;&lt;br&gt;&lt;/div&gt;&lt;div&gt;Student Records&lt;/div&gt;" style="text;html=1;whiteSpace=wrap;strokeColor=none;fillColor=none;align=center;verticalAlign=middle;rounded=0;" vertex="1" parent="1">
          <mxGeometry x="480" y="327.5" width="90" height="20" as="geometry" />
        </mxCell>
        <mxCell id="Qd_BEHRQg58mUEn6fGvU-31" value="&lt;div&gt;&lt;br&gt;&lt;/div&gt;&lt;div&gt;Payment Records&lt;/div&gt;" style="text;html=1;whiteSpace=wrap;strokeColor=none;fillColor=none;align=center;verticalAlign=middle;rounded=0;" vertex="1" parent="1">
          <mxGeometry x="170" y="320" width="90" height="20" as="geometry" />
        </mxCell>
        <mxCell id="Qd_BEHRQg58mUEn6fGvU-32" value="" style="curved=1;endArrow=classic;html=1;rounded=0;exitX=0.467;exitY=0.988;exitDx=0;exitDy=0;exitPerimeter=0;" edge="1" parent="1" source="Qd_BEHRQg58mUEn6fGvU-3">
          <mxGeometry width="50" height="50" relative="1" as="geometry">
            <mxPoint x="300" y="440" as="sourcePoint" />
            <mxPoint x="370" y="490" as="targetPoint" />
            <Array as="points">
              <mxPoint x="350" y="360" />
              <mxPoint x="380" y="460" />
              <mxPoint x="410" y="470" />
            </Array>
          </mxGeometry>
        </mxCell>
        <mxCell id="Qd_BEHRQg58mUEn6fGvU-33" value="Database Management Request" style="text;html=1;whiteSpace=wrap;strokeColor=none;fillColor=none;align=center;verticalAlign=middle;rounded=0;" vertex="1" parent="1">
          <mxGeometry y="270" width="180" height="30" as="geometry" />
        </mxCell>
        <mxCell id="Qd_BEHRQg58mUEn6fGvU-34" value="&lt;div&gt;Management Data &amp;amp; Reports&lt;/div&gt;&lt;div&gt;&lt;br&gt;&lt;/div&gt;" style="text;html=1;whiteSpace=wrap;strokeColor=none;fillColor=none;align=center;verticalAlign=middle;rounded=0;rotation=0;" vertex="1" parent="1">
          <mxGeometry x="313.0003810567666" y="500.00165124598857" width="130" height="30" as="geometry" />
        </mxCell>
        <mxCell id="Qd_BEHRQg58mUEn6fGvU-35" value="" style="endArrow=classic;html=1;rounded=0;exitX=0;exitY=1;exitDx=0;exitDy=0;entryX=1;entryY=0.5;entryDx=0;entryDy=0;" edge="1" parent="1" source="Qd_BEHRQg58mUEn6fGvU-13" target="Qd_BEHRQg58mUEn6fGvU-6">
          <mxGeometry width="50" height="50" relative="1" as="geometry">
            <mxPoint x="640" y="339" as="sourcePoint" />
            <mxPoint x="640" y="491" as="targetPoint" />
          </mxGeometry>
        </mxCell>
        <mxCell id="Qd_BEHRQg58mUEn6fGvU-36" value="Username &amp;amp; Password" style="text;html=1;whiteSpace=wrap;strokeColor=none;fillColor=none;align=center;verticalAlign=middle;rounded=0;" vertex="1" parent="1">
          <mxGeometry x="578" y="350" width="80" height="30" as="geometry" />
        </mxCell>
        <mxCell id="Qd_BEHRQg58mUEn6fGvU-37" value="" style="curved=1;endArrow=classic;html=1;rounded=0;exitX=0.287;exitY=0.95;exitDx=0;exitDy=0;exitPerimeter=0;" edge="1" parent="1" source="Qd_BEHRQg58mUEn6fGvU-13">
          <mxGeometry width="50" height="50" relative="1" as="geometry">
            <mxPoint x="641" y="440" as="sourcePoint" />
            <mxPoint x="630" y="584" as="targetPoint" />
            <Array as="points">
              <mxPoint x="610" y="454" />
              <mxPoint x="640" y="554" />
              <mxPoint x="670" y="564" />
            </Array>
          </mxGeometry>
        </mxCell>
        <mxCell id="Qd_BEHRQg58mUEn6fGvU-38" value="Registration Confirmation" style="text;html=1;whiteSpace=wrap;strokeColor=none;fillColor=none;align=center;verticalAlign=middle;rounded=0;" vertex="1" parent="1">
          <mxGeometry x="540" y="590" width="180" height="30" as="geometry" />
        </mxCell>
      </root>
    </mxGraphModel>
  </diagram>
</mxfile>
